<?xml version="1.0" standalone="no"?><!DOCTYPE svg PUBLIC "-//W3C//DTD SVG 1.1//EN" "http://www.w3.org/Graphics/SVG/1.1/DTD/svg11.dtd"><svg t="1728550473686" class="icon" viewBox="0 0 1024 1024" version="1.1" xmlns="http://www.w3.org/2000/svg" p-id="26995" xmlns:xlink="http://www.w3.org/1999/xlink" width="32" height="32"><path d="M810.666667 846.122667C810.666667 847.189333 811.690667 853.333333 810.837333 853.333333L216.832 853.333333C216.021333 853.333333 213.333333 847.36 213.333333 846.421333L213.333333 298.666667l298.666667 0L512 213.333333 128 213.333333l0 69.632 0 563.456L128 938.666667l768 0 0-92.245333L896 512l-85.333333 0L810.666667 846.122667z" fill="#f4ea2a" p-id="26996"></path><path d="M298.666667 768l199.296 0 388.437333-392.192-194.176-187.946667L298.666667 576.725333 298.666667 768zM384 612.266667l308.906667-305.578667 71.509333 70.272L462.464 682.666667 384 682.666667 384 612.266667z" fill="#f4ea2a" p-id="26997"></path><path d="M737.30967 148.768717l60.1344-60.544 181.93472 180.703872-60.1344 60.544-181.93472-180.703872Z" fill="#f4ea2a" p-id="26998"></path></svg>