<?xml version="1.0" standalone="no"?><!DOCTYPE svg PUBLIC "-//W3C//DTD SVG 1.1//EN" "http://www.w3.org/Graphics/SVG/1.1/DTD/svg11.dtd"><svg t="1727528046017" class="icon" viewBox="0 0 1024 1024" version="1.1" xmlns="http://www.w3.org/2000/svg" p-id="4272" xmlns:xlink="http://www.w3.org/1999/xlink" width="200" height="200"><path d="M769.3056 203.4112c-166.9376-49.2928-245.0112 75.3152-259.264 104.032-14.2656-28.7168-92.3328-153.3248-259.2704-104.032 0 0-199.0912 63.552-90.2144 275.9744 0 0 44.6528 47.5008 140.2176 139.1104l208.8256 212.7296L509.6 832l0.4416-0.3904L510.4768 832l0-0.768 212.2432-214.8608c98.7776-95.872 132.0576-128.9024 132.0576-128.9024C983.6096 286.1376 769.3056 203.4112 769.3056 203.4112zM795.6096 407.5776l-284.608 288.6848-275.84-274.8416c0 0-39.7312-62.848 18.2528-118.24 0 0 61.2032-55.3984 121.3312-8.5248l136.2624 141.6832 140.7424-142.7456c0 0 60.128-46.8736 119.1744 13.8496C770.9184 307.4432 819.232 354.3168 795.6096 407.5776z" fill="#272636" p-id="4273"></path></svg>