<?xml version="1.0" standalone="no"?><!DOCTYPE svg PUBLIC "-//W3C//DTD SVG 1.1//EN" "http://www.w3.org/Graphics/SVG/1.1/DTD/svg11.dtd"><svg t="1727497786103" class="icon" viewBox="0 0 1024 1024" version="1.1" xmlns="http://www.w3.org/2000/svg" p-id="12127" xmlns:xlink="http://www.w3.org/1999/xlink" width="32" height="32"><path d="M288.155425 273.701016c20.641874 3.072007 40.843595-18.475354 45.124261-48.125763 4.276637-29.647388-8.983355-56.178451-29.625229-59.249451-20.641874-3.074022-40.843595 18.472332-45.122246 48.124756C254.251544 244.098953 267.513551 270.629009 288.155425 273.701016zM158.807806 310.7182c12.808759-3.293595 19.356667-21.352968 14.621747-40.331929-4.736934-18.980976-18.958817-31.697071-31.767576-28.402469-12.807752 3.298631-19.356667 21.354983-14.619733 40.333944C131.775149 301.299728 145.997032 314.011794 158.807806 310.7182zM112.450713 350.830556c11.512473-0.632531 20.156396-14.00231 19.311342-29.864946-0.844047-15.861629-10.860805-28.202033-22.373277-27.569502-11.512473 0.630517-20.156396 14.00231-19.311342 29.85991C90.92249 339.118655 100.940255 351.464095 112.450713 350.830556zM852.254512 126.172151c11.412759 0.337417 21.075984-13.671943 21.579592-31.283106 0.503608-17.615192-8.343773-32.167441-19.76056-32.502844-11.414773-0.334396-21.075984 13.671943-21.581606 31.286127C831.990343 111.285506 840.836717 125.837755 852.254512 126.172151zM920.237528 169.678823c7.980168 0.436124 14.926933-8.126214 15.51414-19.121986 0.587207-10.998793-5.40774-20.271219-13.389923-20.707343-7.982183-0.44116-14.926933 8.118157-15.51414 19.117957C906.258384 159.967252 912.255345 169.23867 920.237528 169.678823zM888.095267 141.862553c8.881626 2.285372 18.742266-6.531792 22.025788-19.694084 3.281508-13.158263-1.257005-25.680973-10.137624-27.964331-8.882633-2.287386-18.74428 6.528771-22.025788 19.690055C874.673114 127.056486 879.211627 139.578189 888.095267 141.862553zM798.403736 116.196689c14.312532-2.131268 23.511431-20.523023 20.543167-41.087341-2.970278-20.559282-16.977624-35.49931-31.290156-33.370056-14.312532 2.132275-23.509417 20.528059-20.541152 41.085327C770.083858 103.387929 784.091204 118.325942 798.403736 116.196689zM722.608757 124.502187c19.450338-2.897759 31.734338-29.377454 27.438564-59.1447-4.296781-29.768253-23.547691-51.55231-43.000043-48.656565-19.450338 2.892723-31.734338 29.375439-27.437557 59.139664C683.905495 105.610854 703.158419 127.396925 722.608757 124.502187zM365.607273 935.370074c0.555983-0.526774 1.107937-1.055562 1.643776-1.596437 27.02762-27.246186 32.112044-60.950638 28.747944-98.903524-5.280831-59.575788-50.939923-98.700066-73.004992-128.8843-39.051759-53.427745-20.934974-121.620262 0.842032-148.158375 52.802264-64.344954 102.67051-70.899912 105.604529-148.352768 3.880801-102.510363-113.791176-90.68666-179.527094-76.856584-82.135401 17.27576-154.457501 70.952287-163.684602 148.352768-13.493666 113.200948 41.508357 180.8959 61.603313 230.57076 58.081081 143.586624 10.559647 119.755906 45.759814 196.613498 29.273711 63.916887 118.704373 67.20746 164.31109 33.634954C360.014206 939.031302 362.661168 936.867803 365.607273 935.370074zM210.49609 288.089089c16.46193-0.484471 29.219321-21.470812 28.49614-46.869765-0.726202-25.401974-14.660021-45.602688-31.123966-45.11721-16.459915 0.484471-29.219321 21.470812-28.494126 46.867751C180.099334 268.373854 194.032145 288.575575 210.49609 288.089089zM856.419348 727.940089c-9.530273-12.693937-20.536116-25.435212-32.706301-37.975045-8.718457-9.008535-22.978614-9.096163-31.870312-0.241732-8.872561 8.846374-8.962203 23.376464-0.221587 32.381978 10.829581 11.156926 20.601585 22.511266 29.007806 33.638983 4.446856 5.901275 11.139803 8.987384 17.918363 8.987384 4.775209 0 9.59272-1.544061 13.666907-4.714776C862.120187 752.303624 863.993608 737.953826 856.419348 727.940089zM815.412584 930.629111c-10.607993 7.466488-23.06322 14.214832-36.998046 20.027473-11.512473 4.828591-16.992732 18.197362-12.25882 29.905235 3.587702 8.832273 11.996944 14.173536 20.843317 14.173536 2.862506 0 5.790482-0.560012 8.585505-1.720324 16.925249-7.087775 32.246004-15.448671 45.49693-24.744263 10.232302-7.241879 12.785593-21.50405 5.697818-31.877363C839.690506 926.024121 825.602583 923.432556 815.412584 930.629111zM425.819622 954.188888c-14.317568-5.208311-27.342879-11.31103-38.714341-18.082539-6.83295-4.108432-14.905782-4.08728-21.498007-0.736275-2.395158 2.270264-4.971616 4.409589-7.703184 6.420999-0.591235 0.772534-1.144197 1.587372-1.64579 2.451562-6.307183 10.908144-2.706388 24.945706 8.023479 31.335481 13.777701 8.204777 29.360331 15.493996 46.308746 21.705494 2.518039 0.894407 5.082409 1.318445 7.616563 1.318445 9.242209 0 17.903255-5.790482 21.216994-15.154564C443.628199 971.57947 437.54361 958.439337 425.819622 954.188888zM764.394098 624.855614c-6.448193-11.713916-10.38842-23.875036-11.684707-36.186231-0.371663-3.529283-1.494708-6.782589-3.197909-9.606821-2.13429-1.607516-4.126562-3.332876-5.951636-5.172051-1.037432-1.046497-2.021481-2.108102-2.967257-3.181794-3.748856-1.930832-8.101034-2.823225-12.690915-2.333718-12.391772 1.337582-21.349947 12.604295-20.007328 25.187437 1.958027 18.485426 7.72635 36.544799 17.188132 53.664441 4.115482 7.490662 11.775356 11.716938 19.678976 11.716938 3.721661 0 7.503755-0.939732 10.98167-2.92999C766.619037 649.841608 770.490773 635.898724 764.394098 624.855614zM875.345934 803.983851c-12.191336 2.572428-20.027473 14.685202-17.495333 27.066902 1.516867 7.403034 2.290408 14.665057 2.290408 21.571534 0 5.631342-0.529795 11.26772-1.544061 16.651286-2.376021 12.428032 5.614219 24.43404 17.849873 26.800997 1.431253 0.312237 2.884665 0.423031 4.29376 0.423031 10.587849 0 20.029487-7.576275 22.098308-18.525714 1.58435-8.270246 2.379043-16.767116 2.379043-25.349599 0-10.011722-1.082757-20.407193-3.217046-30.86914C899.449607 809.34828 887.432519 801.476891 875.345934 803.983851zM557.345848 977.906798c-15.594717-0.828938-30.769426-2.167528-45.089008-3.981523-12.391772-1.852269-23.615174 7.309363-25.145134 19.875383-1.542047 12.557963 7.228785 23.980793 19.57624 25.544999 15.375144 1.944933 31.618508 3.399352 48.27886 4.29376 0.407922 0.020144 0.803758 0.020144 1.207651 0.020144 11.900251 0 21.848518-9.473869 22.486086-21.678299C579.321275 989.323585 569.781938 978.550409 557.345848 977.906798zM419.905253 130.216121c-28.050951-4.17793-55.813839 27.24115-62.011235 70.168674-6.19639 42.934574 11.520531 81.11912 39.570475 85.292014 28.049944 4.179944 55.813839-27.239135 62.011235-70.168674C465.672117 172.576582 447.955197 134.389015 419.905253 130.216121zM749.510475 579.062562c31.456347 23.69273 94.05076 21.628945 114.461981-22.936311 24.406845-53.292778-8.542194-36.768401 31.729302-136.332658 13.933819-34.447777 52.072033-81.386032 42.715001-159.882364-6.397833-53.669477-56.546084-90.886089-113.498076-102.864902-45.582544-9.589699-127.176062-17.787425-124.482768 53.292778 2.033568 53.706744 36.612283 58.250293 73.224565 102.867924 15.101182 18.399812 27.66418 65.687572 0.585192 102.730943-15.297589 20.933967-46.959407 48.062308-50.620636 89.376273-2.20278 24.856064 0.826924 47.084302 16.966545 65.395479C744.261875 572.59926 747.353019 575.484933 749.510475 579.062562zM693.300801 972.966406c-14.349799 2.075871-29.448966 3.618925-44.902673 4.626141-12.422996 0.826924-21.843482 11.709887-21.040731 24.340369 0.771527 12.114788 10.688571 21.413401 22.471985 21.413401 0.483463 0 0.980021-0.042303 1.474563-0.042303 16.597904-1.121031 32.860405-2.776893 48.334256-5.00989 12.324289-1.788815 20.889649-13.366757 19.150188-25.883423C717.02979 979.897056 705.65027 971.085935 693.300801 972.966406z" fill="#231815" p-id="12128"></path></svg>