<?xml version="1.0" standalone="no"?><!DOCTYPE svg PUBLIC "-//W3C//DTD SVG 1.1//EN" "http://www.w3.org/Graphics/SVG/1.1/DTD/svg11.dtd"><svg t="1727528244073" class="icon" viewBox="0 0 1024 1024" version="1.1" xmlns="http://www.w3.org/2000/svg" p-id="6669" xmlns:xlink="http://www.w3.org/1999/xlink" width="200" height="200"><path d="M371.2 665.6a25.6 25.6 0 1 1 0 51.2 25.6 25.6 0 0 1 0-51.2z m191.488-166.4c26.2656 0 50.2656 9.5616 69.5296 25.6h96.8704C793.7792 524.8 844.8 582.784 844.8 652.8v38.4a25.6 25.6 0 1 1-51.2 0v-38.4c0-43.0976-29.6576-76.8-64.512-76.8h-60.3136A139.52 139.52 0 0 1 678.4 627.2v38.4a25.6 25.6 0 1 1-51.2 0v-38.4c0-43.0976-29.6576-76.8-64.512-76.8h-101.376C426.4576 550.4 396.8 584.1024 396.8 627.2a25.6 25.6 0 1 1-51.2 0c0-18.1376 3.4304-35.456 9.6256-51.2H295.424c-34.8544 0-64.512 33.7024-64.512 76.8v38.4a25.6 25.6 0 1 1-51.2 0v-38.4c0-70.016 51.0208-128 115.712-128h96.3584c19.264-16.0384 43.264-25.6 69.5296-25.6h101.376zM320 332.8a89.6 89.6 0 1 1 0 179.2 89.6 89.6 0 0 1 0-179.2z m409.6 0a89.6 89.6 0 1 1 0 179.2 89.6 89.6 0 0 1 0-179.2z m-204.8-25.6a89.6 89.6 0 1 1 0 179.2 89.6 89.6 0 0 1 0-179.2z m-204.8 76.8a38.4 38.4 0 1 0 0 76.8 38.4 38.4 0 0 0 0-76.8z m409.6 0a38.4 38.4 0 1 0 0 76.8 38.4 38.4 0 0 0 0-76.8z m-204.8-25.6a38.4 38.4 0 1 0 0 76.8 38.4 38.4 0 0 0 0-76.8z" fill="#585858" p-id="6670"></path></svg>