<?xml version="1.0" standalone="no"?><!DOCTYPE svg PUBLIC "-//W3C//DTD SVG 1.1//EN" "http://www.w3.org/Graphics/SVG/1.1/DTD/svg11.dtd"><svg t="1727497693012" class="icon" viewBox="0 0 1024 1024" version="1.1" xmlns="http://www.w3.org/2000/svg" p-id="6150" xmlns:xlink="http://www.w3.org/1999/xlink" width="32" height="32"><path d="M1002.48908 139.345652 375.21773 139.345652c-11.30344 0-20.466124-9.162684-20.466124-20.466124l0 0c0-11.30344 9.162684-20.466124 20.466124-20.466124l627.27135 0c11.30344 0 20.466124 9.162684 20.466124 20.466124l0 0C1022.955204 130.182968 1013.792521 139.345652 1002.48908 139.345652zM1002.48908 460.663798 375.21773 460.663798c-11.30344 0-20.466124-9.162684-20.466124-20.466124l0 0c0-11.30344 9.162684-20.466124 20.466124-20.466124l627.27135 0c11.30344 0 20.466124 9.162684 20.466124 20.466124l0 0C1022.955204 451.501114 1013.792521 460.663798 1002.48908 460.663798zM1002.48908 779.935332 375.21773 779.935332c-11.30344 0-20.466124-9.162684-20.466124-20.466124l0 0c0-11.30344 9.162684-20.466124 20.466124-20.466124l627.27135 0c11.30344 0 20.466124 9.162684 20.466124 20.466124l0 0C1022.955204 770.772648 1013.792521 779.935332 1002.48908 779.935332zM248.327762 31.898501 248.327762 31.898501c-7.992021-7.992021-20.951171-7.992021-28.943193 0L90.226954 161.056116 36.793998 107.623159c-7.992021-7.992021-20.951171-7.992021-28.943193 0l0 0c-7.992021 7.992021-7.992021 20.951171 0 28.943193l65.285912 67.332525c1.199315 1.199315 2.520403 2.196015 3.910053 3.036149 7.945973 5.258771 18.752086 4.38896 25.750477-2.609431L248.327762 60.841693C256.319783 52.849672 256.319783 39.891546 248.327762 31.898501zM249.351068 351.937514 249.351068 351.937514c-7.992021-7.992021-20.951171-7.992021-28.943193 0L91.25026 481.09513l-53.432956-53.432956c-7.992021-7.992021-20.951171-7.992021-28.943193 0l0 0c-7.992021 7.992021-7.992021 20.951171 0 28.943193l65.285912 67.332525c1.199315 1.199315 2.520403 2.196015 3.910053 3.036149 7.945973 5.258771 18.752086 4.38896 25.750477-2.609431l145.530514-143.483902C257.343089 372.888685 257.343089 359.930559 249.351068 351.937514zM129.624243 882.265952c-67.146283 0-121.773438-54.627155-121.773438-121.773438s54.627155-121.773438 121.773438-121.773438 121.773438 54.627155 121.773438 121.773438S196.770526 882.265952 129.624243 882.265952zM129.624243 679.651324c-44.576241 0-80.84119 36.264948-80.84119 80.84119s36.264948 80.84119 80.84119 80.84119 80.84119-36.264948 80.84119-80.84119S174.199461 679.651324 129.624243 679.651324z" fill="#2c2c2c" p-id="6151"></path></svg>