<?xml version="1.0" standalone="no"?><!DOCTYPE svg PUBLIC "-//W3C//DTD SVG 1.1//EN" "http://www.w3.org/Graphics/SVG/1.1/DTD/svg11.dtd"><svg t="1728548398969" class="icon" viewBox="0 0 1024 1024" version="1.1" xmlns="http://www.w3.org/2000/svg" p-id="23744" xmlns:xlink="http://www.w3.org/1999/xlink" width="32" height="32"><path d="M788.032 705.92V192a16 16 0 0 0-16-16H601.92v-68.8a7.232 7.232 0 0 0-11.712-5.76L462.72 202.368a7.168 7.168 0 0 0 0 11.264l127.488 100.8a7.232 7.232 0 0 0 11.712-5.696V240h113.92v465.92a112.064 112.064 0 1 0 72.128 0zM752 860.032a48 48 0 1 1 0-96 48 48 0 0 1 0 96zM384 211.968a112.064 112.064 0 0 0-224 0c0 49.28 31.808 91.008 76.032 106.112v387.904A112.064 112.064 0 1 0 384 812.16c-0.064-49.216-31.872-91.008-76.096-106.112v-387.84A112.192 112.192 0 0 0 384 211.904z m-160 0a48 48 0 1 1 96 0 48 48 0 0 1-96 0z m96 600.064a48 48 0 1 1-96 0 48 48 0 0 1 96 0z" p-id="23745" fill="#1afa29"></path></svg>