<?xml version="1.0" standalone="no"?><!DOCTYPE svg PUBLIC "-//W3C//DTD SVG 1.1//EN" "http://www.w3.org/Graphics/SVG/1.1/DTD/svg11.dtd"><svg t="1728543453879" class="icon" viewBox="0 0 1024 1024" version="1.1" xmlns="http://www.w3.org/2000/svg" p-id="18639" width="32" height="32" xmlns:xlink="http://www.w3.org/1999/xlink"><path d="M691.4 300c-42.6 0-77.2 34.6-77.2 77.2s77.2 156.6 77.2 156.6 77.2-114 77.2-156.6c0.2-42.6-34.4-77.2-77.2-77.2z m0 112c-19.2 0-34.6-15.6-34.6-34.6s15.6-34.6 34.6-34.6 34.6 15.6 34.6 34.6-15.4 34.6-34.6 34.6z" fill="#FE8E46" p-id="18640"></path><path d="M656.8 377.4c0-19.2 15.6-34.6 34.6-34.6V300c-42.6 0-77.2 34.6-77.2 77.2s77.2 156.6 77.2 156.6v-122c-19.2 0.2-34.6-15.4-34.6-34.4z" fill="#E56823" p-id="18641"></path><path d="M308.4 736.8c-29.4 0-53.2-23.8-53.2-53.2v-60.8h53.2v114zM577.6 702.4H332.6v-177.2c0-67.6 54.8-122.4 122.4-122.4 67.6 0 122.4 54.8 122.4 122.4v177.2z" fill="#7DAC51" p-id="18642"></path><path d="M455.2 317.8m-84.8 0a84.8 84.8 0 1 0 169.6 0 84.8 84.8 0 1 0-169.6 0Z" fill="#FEFE71" p-id="18643"></path><path d="M455.2 416.8c-54.6 0-98.8-44.4-98.8-98.8s44.4-98.8 98.8-98.8c54.6 0 98.8 44.4 98.8 98.8s-44.4 98.8-98.8 98.8z m0-169.8c-39 0-70.8 31.8-70.8 70.8s31.8 70.8 70.8 70.8 70.8-31.8 70.8-70.8-31.8-70.8-70.8-70.8z" fill="#463218" p-id="18644"></path><path d="M497.6 410.2c-13.2-4.8-27.6-7.6-42.4-7.6-67.6 0-122.4 54.8-122.4 122.4v177.2h84.8v-177.2c0-52.6 33.2-97.4 80-114.8z" fill="#5B7C31" p-id="18645"></path><path d="M577.6 716.4H332.6c-7.8 0-14-6.2-14-14v-177.2c0-75.2 61.2-136.4 136.4-136.4s136.4 61.2 136.4 136.4v177.2c0.2 7.8-6 14-13.8 14z m-231-28h217v-163.2c0-59.8-48.6-108.4-108.4-108.4s-108.4 48.6-108.4 108.4v163.2z" fill="#463218" p-id="18646"></path><path d="M594.4 791h-286V530c0-40 28.2-72.4 63.2-72.4h159.6c35 0 63.2 32.4 63.2 72.4v261z" fill="#FE8E46" p-id="18647"></path><path d="M594.4 805h-286c-7.8 0-14-6.2-14-14V530c0-47.6 34.6-86.4 77.2-86.4h159.6c42.6 0 77.2 38.8 77.2 86.4v261c0 7.8-6.2 14-14 14z m-272-28h258V530c0-32.2-22-58.4-49.2-58.4h-159.6c-27.2 0-49.2 26.2-49.2 58.4v247z" fill="#463218" p-id="18648"></path><path d="M559.8 464.6c-8.6-4.4-18.2-6.8-28.6-6.8h-159.6c-8.6 0-16.6 1.6-24 4.8v121h212.2v-119z" fill="#FEFE71" p-id="18649"></path><path d="M371.6 457.8c-8.6 0-16.6 1.6-24 4.8v61.2h212.2v-59c-8.6-4.4-18.2-6.8-28.6-6.8h-159.6z" fill="#D6CD1E" p-id="18650"></path><path d="M372 702.4h163.6v88.6H372z" fill="#E56823" p-id="18651"></path><path d="M559.8 597.6H347.6c-7.8 0-14-6.2-14-14v-121c0-5.6 3.4-10.8 8.6-13 9.4-3.8 19.2-5.8 29.4-5.8h159.6c12.2 0 24 2.8 34.8 8.4 4.8 2.4 7.6 7.2 7.6 12.4v119c0.2 7.6-6 14-13.8 14z m-198.2-28h184.2V474c-4.6-1.4-9.6-2.2-14.6-2.2h-159.6c-3.4 0-6.8 0.4-10 1v96.8zM308.4 750.8c-37 0-67.2-30.2-67.2-67.2v-60.8c0-7.8 6.2-14 14-14h53.2c7.8 0 14 6.2 14 14v114c0 7.8-6.2 14-14 14z m-39.2-114v46.8c0 16.6 10.4 31 25.2 36.6v-83.4h-25.2z" fill="#463218" p-id="18652"></path><path d="M594.4 736.8c29.4 0 53.2-23.8 53.2-53.2v-60.8h-53.2v114z" fill="#7DAC51" p-id="18653"></path><path d="M594.4 750.8c-7.8 0-14-6.2-14-14v-114c0-7.8 6.2-14 14-14h53.2c7.8 0 14 6.2 14 14v60.8c0 37-30 67.2-67.2 67.2z m14-114v83.4c14.8-5.6 25.2-20 25.2-36.6v-46.8h-25.2zM535.4 805H372c-7.8 0-14-6.2-14-14v-91.4c0-7.8 6.2-14 14-14h163.6c7.8 0 14 6.2 14 14v91.4c-0.2 7.8-6.4 14-14.2 14z m-149.4-28h135.6v-63.4H386v63.4z" fill="#463218" p-id="18654"></path><path d="M400 653.8c-7.8 0-14-6.2-14-14v-56.2c0-7.8 6.2-14 14-14s14 6.2 14 14v56.2c0 7.6-6.2 14-14 14z" fill="#463218" p-id="18655"></path><path d="M510.2 653.8c-7.8 0-14-6.2-14-14v-56.2c0-7.8 6.2-14 14-14s14 6.2 14 14v56.2c0 7.6-6.2 14-14 14z" fill="#463218" p-id="18656"></path><path d="M691.4 548c-4.6 0-9-2.4-11.6-6.2-8.2-12-79.6-118.8-79.6-164.6 0-50.4 41-91.2 91.2-91.2s91.2 41 91.2 91.2c0 45.6-71.6 152.4-79.6 164.6-2.6 4-7 6.2-11.6 6.2z m0-234c-34.8 0-63.2 28.4-63.2 63.2 0 24.4 35 87.2 63.2 131.2 28.2-44 63.2-106.8 63.2-131.2 0.2-34.8-28.2-63.2-63.2-63.2z" fill="#463218" p-id="18657"></path><path d="M691.4 426c-26.8 0-48.6-21.8-48.6-48.6s21.8-48.6 48.6-48.6 48.6 21.8 48.6 48.6-21.8 48.6-48.6 48.6z m0-69.4c-11.4 0-20.6 9.2-20.6 20.6S680 398 691.4 398s20.6-9.2 20.6-20.6-9.2-20.8-20.6-20.8z" fill="#463218" p-id="18658"></path></svg>