<?xml version="1.0" standalone="no"?><!DOCTYPE svg PUBLIC "-//W3C//DTD SVG 1.1//EN" "http://www.w3.org/Graphics/SVG/1.1/DTD/svg11.dtd"><svg t="1727528204947" class="icon" viewBox="0 0 1024 1024" version="1.1" xmlns="http://www.w3.org/2000/svg" p-id="5550" xmlns:xlink="http://www.w3.org/1999/xlink" width="200" height="200"><path d="M226.9 815a3090.68 3090.68 0 0 1-72.268-7.16c-28.296-3.256-54.596-28.68-57.688-55.916a2194.072 2194.072 0 0 1-6.836-72.968c-2.184-27.248 19.416-54.988 47.42-62.196 25.556-6.48 51.208-13.276 76.932-20.324" fill="#60783A" p-id="5551"></path><path d="M229.38 841.696a2829.06 2829.06 0 0 1-71.644-7.792c-42.452-5.448-82.616-44.188-87.672-84.88a2017.804 2017.804 0 0 1-7.276-72.084c-3.296-37.804 26.176-74.82 65.764-85.312a4538.928 4538.928 0 0 0 77.28-20.844c5.696 17.072 11.504 34.22 17.412 51.432a3864.44 3864.44 0 0 1-76.552 19.832c-16.436 4.108-30.472 22.508-29.268 38.804 1.748 24.596 3.88 49.196 6.396 73.792 1.396 13.48 14.016 25.712 27.972 27.136a3471.744 3471.744 0 0 0 72.844 6.532 3487.24 3487.24 0 0 0 4.744 53.384c0.004 0 0.004 0 0 0z" fill="#60783A" p-id="5552"></path><path d="M796.744 811.288a3095.76 3095.76 0 0 0 72.204-8.1c28.272-3.636 54.484-28.952 57.516-55.672a2156.028 2156.028 0 0 0 6.704-71.624c2.144-26.74-19.444-53.824-47.412-60.788a3785.908 3785.908 0 0 1-76.836-19.7" fill="#60783A" p-id="5553"></path><path d="M865.904 828.844a2804.32 2804.32 0 0 1-71.584 8.812c1.684-17.58 3.236-35.156 4.644-52.732a3418.156 3418.156 0 0 0 72.768-7.392c13.94-1.592 26.528-13.764 27.9-27.024a2371.36 2371.36 0 0 0 6.264-72.54c1.176-16.012-12.86-33.988-29.276-37.932a3516.772 3516.772 0 0 1-76.456-19.136c5.884-17.036 11.676-33.996 17.356-50.868a4048.656 4048.656 0 0 0 77.176 20.296c39.536 10.196 68.98 46.3 65.752 83.34a1983.276 1983.276 0 0 1-7.136 70.656c-4.96 39.856-44.988 78.432-87.408 84.52z" fill="#60783A" p-id="5554"></path><path d="M794.492 811.516c-6.316 65.452-65.02 127.548-127.552 133.464a1980.984 1980.984 0 0 1-312.084 2.812c-62.532-4.724-121.456-66.52-127.948-132.792a3412.012 3412.012 0 0 1-9.124-475.288c3.728-66.296 63.172-125.912 129.084-129.288a3155.94 3155.94 0 0 1 327.724 1.944c65.9 4.228 125.132 63.864 128.756 129.328a3434.424 3434.424 0 0 1-8.856 469.82z" fill="#809E4D" p-id="5555"></path><path d="M665.04 972.216a1818.94 1818.94 0 0 1-308.192 2.988c-75.248-6.236-147.62-82.432-156.416-162.624a3074.168 3074.168 0 0 1-9.968-471.488c5.072-80.22 78.072-153.484 157.8-158.08a2844.508 2844.508 0 0 1 324.996 2.124c79.708 5.74 152.444 79.02 157.384 158.12a3082.744 3082.744 0 0 1-9.688 465.508c-8.568 79.076-80.656 155.648-155.916 163.452zM345.588 237.828c-52.068 2.356-97.888 48.288-100.484 100.636a3812.252 3812.252 0 0 0 8.276 478.732c4.54 52.336 49.964 99.78 99.604 103.188a2164.344 2164.344 0 0 0 315.744-2.632c49.64-4.28 94.9-51.96 99.304-103.716a3853.32 3853.32 0 0 0 8.02-473.776c-2.52-51.764-48.2-97.708-100.248-100.664a3522.66 3522.66 0 0 0-330.216-1.768z" fill="#809E4D" p-id="5556"></path><path d="M331.884 50.844c16.64-1.48 33.28-2.732 49.92-3.752a7463.452 7463.452 0 0 0-8.396 162.216c-17.696 0.668-35.396 1.48-53.096 2.444a5344.64 5344.64 0 0 1 11.572-160.908zM640.068 49.596c16.64 1.344 33.28 2.92 49.92 4.724a5461.316 5461.316 0 0 1 11.124 159.696c-17.692-1.172-35.384-2.2-53.076-3.076a7693.728 7693.728 0 0 0-7.968-161.344z" p-id="5557"></path><path d="M354.384 619.1c106.336 1.516 212.636 1.264 318.908-0.752a6735.36 6735.36 0 0 1-5.356 181.916 3306.196 3306.196 0 0 1-308.164 2.044 6764.872 6764.872 0 0 1-5.388-183.208z" fill="#FFD25F" p-id="5558"></path><path d="M666.708 827.536a2972.348 2972.348 0 0 1-305.704 2.236c-14.568-0.652-27.088-13.544-27.876-28.632a5731.376 5731.376 0 0 1-6.32-182.468c-0.288-15.096 11.928-27.176 27.192-27.028 106.588 1.128 213.144 0.94 319.66-0.564 15.256-0.2 27.46 11.74 27.172 26.708a5659.908 5659.908 0 0 1-6.276 180.952c-0.78 14.96-13.288 27.924-27.848 28.796zM385.476 775.72c85.6 2.456 171.184 1.944 256.752-1.532 1.368-42.652 2.404-85.308 3.1-127.96-87.632 1.78-175.292 2.04-262.972 0.78 0.708 42.904 1.744 85.808 3.12 128.712z" fill="#FFD25F" p-id="5559"></path><path d="M427.8 416.164c-29.18 0.168-58.364 0.46-87.548 0.868-69.144 0.648-124.68-43.156-121.348-98.132 3.444-54.928 61.964-105.16 127.964-108.476a3155.94 3155.94 0 0 1 327.724 1.944c65.988 4.156 124.324 54.512 127.672 108.752 3.24 54.28-52.256 97.364-121.344 96.52-19.38-0.34-38.76-0.628-58.148-0.864" fill="#9BBF5D" p-id="5560"></path><path d="M681.26 444.872a14883.24 14883.24 0 0 0-58.264-0.616c-0.124-18.32-0.3-36.64-0.528-54.96 19.332 0.304 38.66 0.676 57.992 1.116 52.988 0.992 96.736-31.176 94.612-70.896-2.16-39.7-48.048-77.072-99.264-79.92a3522.752 3522.752 0 0 0-330.22-1.768c-51.244 2.268-97.248 39.524-99.472 79.672-2.188 40.168 41.592 72.9 94.616 72.12a8361.72 8361.72 0 0 1 87.308-1.116c-0.18 18.436-0.32 36.876-0.416 55.316-29.24 0.12-58.484 0.328-87.732 0.616-84.692 0.324-152.824-54.98-148.208-123.992 4.848-68.94 76.72-132.916 156.58-137.432a2844.508 2844.508 0 0 1 324.996 2.124c79.828 5.644 151.476 69.756 156.196 137.74 4.484 68.048-63.56 122.456-148.196 121.996z" fill="#9BBF5D" p-id="5561"></path><path d="M428.368 358.036c56.044-0.532 112.08-0.352 168.108 0.532 0.472 40.424 0.756 80.848 0.856 121.276a32487.032 32487.032 0 0 0-169.852-0.112c0.1-40.564 0.396-81.132 0.888-121.696z" fill="#FFFFFF" p-id="5562"></path><path d="M597.372 507.408a218756.8 218756.8 0 0 0-169.932-0.016c-15.3 0-27.712-12.356-27.656-27.592 0.136-40.48 0.528-80.964 1.176-121.444 0.256-15.24 12.72-27.8 27.776-27.976 55.804-0.628 111.6-0.416 167.392 0.628 15.06 0.292 27.508 12.888 27.752 28.052 0.628 40.296 1.008 80.592 1.14 120.888 0.048 15.16-12.352 27.456-27.648 27.46z m-142.128-55.412c38.116-0.08 76.224-0.032 114.332 0.14-0.068-22.104-0.172-44.208-0.312-66.312-37.892-0.364-75.788-0.46-113.692-0.296-0.148 22.152-0.256 44.308-0.328 66.468z" fill="#FFFFFF" p-id="5563"></path></svg>